<svg width="200" height="200" viewBox="0 0 200 200" fill="none" xmlns="http://www.w3.org/2000/svg">
<path d="M85.8671 38.185H109.216C109.216 35.8365 109.216 33.5514 109.216 31.2613C109.216 28.1625 109.333 25.0539 109.182 21.9599C109.031 18.8318 110.351 16.4589 113.031 15.3042C116.787 13.6817 120.681 12.1079 124.671 11.338C138.796 8.60947 153.063 8.36098 167.324 10.115C172.362 10.7338 177.327 11.9763 182.297 13.0629C183.637 13.3552 184.914 14.0276 186.156 14.6561C189.396 16.303 191.043 18.7149 190.999 22.6371C190.833 38.9938 190.858 55.3505 190.989 71.7072C191.019 75.2348 189.542 77.481 186.672 79.084C182.58 81.3741 178.082 82.4899 173.502 83.0892C166.769 83.9711 159.996 84.5509 152.994 85.2866C152.994 88.863 152.965 92.6732 153.038 96.4786C153.043 96.8635 153.555 97.3702 153.959 97.5895C157.053 99.2851 158.788 101.858 158.792 105.376C158.792 108.893 157.063 111.471 153.983 113.181C153.55 113.42 153.048 114.019 153.038 114.458C152.965 118.161 152.994 121.864 152.994 125.82H155.016C162.861 125.82 170.701 125.81 178.545 125.82C184.373 125.83 188.007 129.436 188.012 135.248C188.022 150.387 188.027 165.53 188.012 180.669C188.007 186.365 184.348 190.024 178.652 190.024C159.626 190.034 140.594 190.034 121.567 190.024C115.764 190.024 112.154 186.379 112.144 180.552C112.134 176.001 112.144 171.45 112.144 166.768C111.438 166.734 110.848 166.68 110.263 166.68C92.8152 166.68 75.3671 166.69 57.919 166.651C56.696 166.651 56.0285 166.968 55.4145 168.118C53.7189 171.285 50.0549 172.98 46.654 172.425C42.9168 171.816 40.0323 169 39.3112 165.258C38.6583 161.857 40.2418 158.158 43.404 156.414C44.7391 155.678 45.1727 154.874 45.0509 153.447C44.934 152.122 45.0266 150.777 45.0266 149.159C44.3201 149.159 43.6866 149.159 43.0484 149.159C35.2038 149.159 27.3641 149.169 19.5195 149.159C13.6044 149.149 10.0134 145.539 10.0085 139.59C10.0037 124.573 10.0037 109.551 10.0085 94.5345C10.0085 88.4927 13.5897 84.9553 19.6851 84.9504C27.4079 84.9456 35.1258 84.9504 42.8486 84.9504H44.9194V73.2761C44.3298 73.2761 43.6915 73.2761 43.0532 73.2761C35.2086 73.2761 27.3689 73.281 19.5244 73.2761C13.5995 73.2664 10.0085 69.6608 10.0037 63.7165C9.99878 48.6997 9.99878 33.678 10.0037 18.6613C10.0037 12.6146 13.58 9.06748 19.6705 9.06748C38.517 9.06748 57.3635 9.06748 76.21 9.06748C82.2956 9.06748 85.8671 12.6146 85.8769 18.6661C85.8866 25.1075 85.8769 31.5488 85.8769 38.185H85.8671ZM85.8671 44.1683C85.8671 50.8338 85.8769 57.3287 85.8671 63.8237C85.8574 69.6413 82.2372 73.2664 76.4293 73.2761C68.5895 73.2859 60.7498 73.2761 52.9101 73.2761C52.267 73.2761 51.6189 73.2761 50.9855 73.2761V84.9504C59.4391 84.9504 67.7612 84.9504 76.0833 84.9504C82.3931 84.9504 85.8671 88.4439 85.872 94.783C85.872 97.3117 85.872 99.8356 85.872 102.296C86.2374 102.384 86.3543 102.438 86.4664 102.438C104.577 102.447 122.683 102.457 140.794 102.418C141.291 102.418 141.851 101.887 142.27 101.487C143.61 100.216 144.901 98.8855 146.207 97.5797C146.519 97.2679 147.099 96.9512 147.104 96.6296C147.167 92.7658 147.143 88.8971 147.143 85.3646C139.537 84.4827 132.17 83.7567 124.851 82.7286C120.705 82.1488 116.656 80.994 113.011 78.782C110.497 77.252 109.133 75.191 109.177 72.0629C109.299 63.4339 109.221 54.7999 109.221 46.1709V44.1586H85.872L85.8671 44.1683ZM85.8671 108.309V110.496C85.8671 120.042 85.8671 129.587 85.8671 139.127C85.8671 145.734 82.4613 149.164 75.9128 149.169C68.2534 149.169 60.5988 149.169 52.9393 149.169H50.8491C50.8491 150.757 50.9124 152.146 50.8296 153.525C50.7517 154.84 51.0391 155.664 52.3693 156.38C53.5874 157.033 54.6788 158.212 55.3902 159.416C56.048 160.526 56.6911 160.872 57.9141 160.867C75.3573 160.833 92.8006 160.843 110.244 160.838C110.828 160.838 111.418 160.785 112.129 160.751V158.651C112.129 150.991 112.129 143.332 112.129 135.672C112.129 129.333 115.613 125.82 121.899 125.82C129.617 125.82 137.334 125.82 145.057 125.82H147.147C147.147 122.166 147.094 118.711 147.177 115.262C147.206 114.073 146.801 113.522 145.783 112.884C144.541 112.104 143.347 110.984 142.616 109.732C141.91 108.518 141.159 108.28 139.902 108.28C122.581 108.314 105.259 108.304 87.9379 108.304H85.8671V108.309ZM118.098 155.079C118.04 155.401 117.981 155.576 117.976 155.747C117.971 164.132 117.952 172.517 117.976 180.903C117.981 183.173 119.136 184.192 121.601 184.192C140.555 184.201 159.509 184.201 178.462 184.192C181.167 184.192 182.161 183.169 182.161 180.42C182.17 172.459 182.161 164.502 182.161 156.541C182.161 156.073 182.102 155.61 182.068 155.079H118.093H118.098ZM15.8262 114.209C15.8262 122.78 15.8213 131.16 15.8262 139.536C15.8262 142.367 16.8055 143.332 19.6851 143.332C38.517 143.332 57.3489 143.332 76.1856 143.332C79.0457 143.332 80.0202 142.362 80.0251 139.512C80.0348 131.614 80.0251 123.715 80.0251 115.812C80.0251 115.291 79.9617 114.765 79.9228 114.204H15.8262V114.209ZM80.0202 38.3799H15.8262C15.8262 46.7605 15.8262 55.0143 15.8262 63.2731C15.8262 66.6009 16.6789 67.4438 20.0408 67.4438C38.6291 67.4438 57.2222 67.4438 75.8105 67.4438C76.2344 67.4438 76.6631 67.4633 77.087 67.4341C78.8216 67.3025 79.991 66.2647 79.9959 64.5448C80.0397 55.8621 80.0153 47.1844 80.0153 38.3799H80.0202ZM80.03 32.3576C80.03 27.7386 80.03 23.3095 80.03 18.8854C80.03 15.8158 79.1042 14.9095 75.9858 14.9095C65.2958 14.9095 54.6057 14.9095 43.9108 14.9095C35.7105 14.9095 27.5102 14.8998 19.31 14.9144C16.9176 14.9192 15.8652 15.9814 15.8359 18.3543C15.8116 20.2984 15.8311 22.2425 15.8311 24.1866C15.8311 26.8956 15.8311 29.6047 15.8311 32.3576H80.0349H80.03ZM80.0251 108.236C80.0251 103.305 80.0641 98.5688 80.0056 93.8328C79.9812 91.8595 78.7875 90.8022 76.6875 90.8022C57.4902 90.7876 38.2977 90.7876 19.1004 90.8022C16.9517 90.8022 15.8701 91.9228 15.8359 94.0813C15.797 96.6929 15.8262 99.3046 15.8262 101.921C15.8262 104.021 15.8262 106.121 15.8262 108.236H80.0251ZM182.17 149.086C182.17 144.399 182.185 139.799 182.165 135.2C182.156 132.71 181.108 131.667 178.599 131.667C159.587 131.657 140.57 131.657 121.558 131.667C119.038 131.667 117.986 132.705 117.976 135.185C117.957 139.439 117.967 143.692 117.976 147.946C117.976 148.345 118.083 148.74 118.132 149.091H182.17V149.086ZM185.084 62.9466C161.599 69.0274 138.397 69.0079 115.048 62.9515C115.048 65.6459 115.126 68.6181 115.014 71.5805C114.965 72.9497 115.423 73.8413 116.656 74.2457C119.531 75.1812 122.376 76.3165 125.329 76.8866C140.56 79.8295 155.884 79.8782 171.183 77.5395C175.339 76.9061 179.378 75.4492 183.427 74.2165C184.105 74.007 184.972 73.0179 185.011 72.3455C185.177 69.1394 185.084 65.9188 185.084 62.9515V62.9466ZM185.084 27.9335C161.633 33.985 138.431 33.9899 115.048 27.9188C115.048 30.662 115.102 33.678 115.019 36.6941C114.985 37.9024 115.355 38.7307 116.476 39.0962C119.462 40.0658 122.415 41.2741 125.48 41.8686C140.653 44.8115 155.913 44.831 171.149 42.5117C175.305 41.8783 179.354 40.4458 183.393 39.1985C184.1 38.9792 184.967 37.8927 185.006 37.1618C185.186 34.0191 185.084 30.8569 185.084 27.9335ZM115.048 45.4352C115.048 48.2027 115.111 51.2382 115.019 54.264C114.98 55.5016 115.452 56.2519 116.534 56.6368C118.873 57.4652 121.177 58.4884 123.584 58.9902C140.248 62.4789 156.99 62.4399 173.726 59.5993C176.986 59.0487 180.148 57.8549 183.291 56.7635C184.032 56.5053 184.967 55.4967 185.011 54.7902C185.196 51.589 185.094 48.3732 185.094 45.3767C161.701 51.5841 138.44 51.4721 115.058 45.4352H115.048ZM185.108 20.6248C183.681 19.9524 182.609 19.2459 181.435 18.9292C177.922 17.9937 174.409 16.9803 170.827 16.4151C158.758 14.5051 146.621 14.4515 134.484 15.6988C128.808 16.2835 123.156 17.1362 117.801 19.2703C116.943 19.6114 116.159 20.1279 115.34 20.5615C115.34 20.7613 115.35 20.9659 115.355 21.1657C117.192 21.8722 118.99 22.72 120.875 23.2706C128.038 25.356 135.415 26.0868 142.826 26.4133C154.212 26.9151 165.546 26.4669 176.718 23.9624C179.52 23.3339 182.355 22.6566 185.113 20.62L185.108 20.6248ZM47.9646 160.863C46.3811 160.838 45.046 162.139 45.0217 163.728C44.9973 165.306 46.3031 166.651 47.8818 166.671C49.4556 166.695 50.8004 165.384 50.8247 163.806C50.8491 162.227 49.5433 160.887 47.9598 160.863H47.9646ZM152.97 105.531C153.053 103.963 151.786 102.564 150.207 102.486C148.634 102.408 147.245 103.67 147.162 105.249C147.084 106.818 148.346 108.216 149.92 108.294C151.484 108.377 152.887 107.105 152.965 105.531H152.97Z" fill="white" fill-opacity="0.7"/>
<path d="M141.305 169.604C141.305 174.442 137.305 178.398 132.467 178.355C127.711 178.311 123.809 174.369 123.809 169.604C123.809 164.765 127.799 160.814 132.647 160.853C137.408 160.897 141.305 164.829 141.305 169.604ZM135.459 169.54C135.424 167.957 134.07 166.661 132.496 166.7C130.913 166.734 129.621 168.083 129.655 169.662C129.69 171.241 131.044 172.542 132.618 172.508C134.197 172.474 135.498 171.114 135.459 169.54Z" fill="white" fill-opacity="0.7"/>
<path d="M147.235 166.558V160.941H176.187V166.558H147.235Z" fill="white" fill-opacity="0.7"/>
<path d="M164.576 172.649V178.267H147.298V172.649H164.576Z" fill="white" fill-opacity="0.7"/>
<path d="M176.236 178.281H170.623V172.634H176.236V178.281Z" fill="white" fill-opacity="0.7"/>
<path d="M74.1101 131.784V137.397H21.8145V131.784H74.1101Z" fill="white" fill-opacity="0.7"/>
<path d="M74.11 120.11V125.723H33.4838V120.11H74.11Z" fill="white" fill-opacity="0.7"/>
<path d="M21.79 120.066H27.4079V125.679H21.79V120.066Z" fill="white" fill-opacity="0.7"/>
<path d="M56.8178 44.1683H74.0856V61.519H56.8178V44.1683ZM68.2095 55.7062V50.0298H62.6306V55.7062H68.2095Z" fill="white" fill-opacity="0.7"/>
<path d="M50.7565 44.1927V49.8009H21.7803V44.1927H50.7565Z" fill="white" fill-opacity="0.7"/>
<path d="M39.0871 55.8671V61.4801H21.7755V55.8671H39.0871Z" fill="white" fill-opacity="0.7"/>
<path d="M45.1386 55.8475H50.7468V61.4606H45.1386V55.8475Z" fill="white" fill-opacity="0.7"/>
<path d="M45.1386 20.8198H50.7468V26.4328H45.1386V20.8198Z" fill="white" fill-opacity="0.7"/>
<path d="M27.3738 26.4962H21.7559V20.8832H27.3738V26.4962Z" fill="white" fill-opacity="0.7"/>
<path d="M33.4692 20.8198H39.0774V26.4328H33.4692V20.8198Z" fill="white" fill-opacity="0.7"/>
<path d="M27.4322 96.7758V102.364H21.7559V96.7758H27.4322Z" fill="white" fill-opacity="0.7"/>
<path d="M33.4644 96.7174H39.0823V102.33H33.4644V96.7174Z" fill="white" fill-opacity="0.7"/>
<path d="M45.0411 102.36V96.7806H50.7175V102.36H45.0411Z" fill="white" fill-opacity="0.7"/>
<path d="M129.602 137.616V143.185H123.935V137.616H129.602Z" fill="white" fill-opacity="0.7"/>
<path d="M141.159 143.297H135.615V137.621H141.159V143.297Z" fill="white" fill-opacity="0.7"/>
<path d="M147.221 143.249V137.616H152.882V143.249H147.221Z" fill="white" fill-opacity="0.7"/>
</svg>
