<svg width="200" height="200" viewBox="0 0 200 200" fill="none" xmlns="http://www.w3.org/2000/svg">
<path d="M122.663 152.412V164.992C125.359 164.992 127.978 164.992 130.597 164.992C136.326 165.002 138.787 167.477 138.791 173.24C138.791 175.883 138.801 178.526 138.791 181.169C138.772 186.383 136.153 188.998 130.891 189.003C118.941 189.017 106.986 189.003 95.0364 189.003C86.8083 189.003 78.5801 189.007 70.352 189.003C64.7767 188.998 62.249 186.441 62.2442 180.832C62.2442 178.189 62.2394 175.546 62.2442 172.903C62.2587 167.554 64.8345 165.007 70.2316 164.992C72.87 164.987 75.5084 164.992 78.3009 164.992V152.412C77.545 152.412 76.8372 152.412 76.1343 152.412C59.3169 152.412 42.4996 152.431 25.6822 152.402C18.1618 152.392 12.4325 147.886 11.3059 140.876C10.8725 138.175 11.0266 135.368 11.0266 132.604C11.0266 105.936 11.0411 79.2636 11.0748 52.5956C11.0844 45.8215 14.5798 40.7228 20.5017 38.7536C21.1806 38.5274 21.8883 38.2481 22.5864 38.2337C24.2475 38.2 25.5185 37.9737 25.9759 35.9419C26.1107 35.3401 27.5407 34.8923 28.4554 34.6372C29.6494 34.305 30.9398 34.3146 32.153 34.0209C33.4289 33.7128 33.8189 32.8413 33.0148 31.7388C32.3504 30.824 31.5705 29.9815 30.7664 29.187C29.3365 27.7764 29.168 26.7412 30.309 25.0658C32.9523 21.1852 36.308 18.0509 40.3041 15.5955C41.9267 14.5988 43.0918 14.8444 44.4158 16.3128C45.1332 17.1121 45.8602 17.9402 46.7268 18.5516C48.1904 19.5868 48.8548 19.3894 49.3604 17.7043C49.7311 16.4621 49.8467 15.1236 49.9381 13.8237C50.0778 11.7919 50.824 10.7761 52.7787 10.4968C57.1408 9.87091 61.5076 9.72647 65.8503 10.7135C68.2673 11.2623 68.7728 12.0616 68.5995 14.4688C68.5128 15.6918 68.6524 16.9869 68.9702 18.1713C69.2783 19.3123 70.2124 19.6301 71.2042 18.8405C72.0419 18.1713 72.8122 17.4057 73.5537 16.6306C74.974 15.1477 76.3221 14.9696 78.012 16.1395C81.7192 18.7105 84.6995 21.97 87.0827 25.7831C88.1419 27.4779 87.9541 28.5226 86.5435 29.9285C85.6142 30.8529 84.7187 31.8206 83.9243 32.8606C83.1829 33.8283 83.5777 34.6275 84.6947 34.8635C85.855 35.109 87.1068 34.9694 88.2382 35.2919C89.2396 35.576 90.5107 36.0478 90.9633 36.8374C91.5266 37.8196 92.061 38.0363 93.0383 38.0315C98.5655 38.0074 104.088 38.017 109.615 38.017C131.295 38.017 152.98 38.0315 174.66 38.0026C178.233 38.0026 181.593 38.5707 184.492 40.8191C187.919 43.4767 189.855 46.9721 189.932 51.3149C190.043 57.3813 189.985 63.4477 189.985 69.5141C189.985 92.2774 189.999 115.046 189.98 137.809C189.975 144.901 186.061 150.264 179.667 151.872C178.059 152.277 176.345 152.392 174.679 152.397C158.103 152.436 141.526 152.421 124.949 152.421H122.687L122.663 152.412ZM24.5845 43.7319C19.7362 43.8475 16.6115 47.4055 16.6067 52.7785C16.5971 77.824 16.6067 102.874 16.6067 127.92C16.6067 128.493 16.6067 129.066 16.6067 129.576H184.439V127.824C184.439 102.898 184.439 77.9685 184.439 53.0433C184.439 46.847 181.174 43.5875 174.992 43.5875C147.968 43.5875 120.939 43.5875 93.9146 43.5875H92.1428C91.7962 46.3222 91.5603 48.8258 91.1414 51.2956C90.761 53.5441 89.7259 54.1218 87.4486 53.9292C86.2787 53.8329 85.0413 53.8859 83.9147 54.1844C82.5762 54.5407 82.0803 55.6095 82.9036 56.8372C83.5295 57.7665 84.348 58.5849 85.1809 59.3456C86.7698 60.8045 86.9768 62.1429 85.725 63.9291C83.2069 67.516 80.063 70.4433 76.3606 72.7783C74.3481 74.0494 73.2263 73.8327 71.7193 72.0273C71.0742 71.2569 70.3616 70.477 69.5239 69.9377C68.1084 69.0182 67.0925 69.4322 66.6977 71.0547C66.4474 72.0899 66.3655 73.1924 66.38 74.2612C66.3992 76.0426 65.7059 77.2078 63.9775 77.824C59.3025 79.4947 54.6275 78.9121 49.9622 77.8722C48.5949 77.564 48.1712 76.4326 48.2289 75.0797C48.2771 73.8857 48.3926 72.658 48.1952 71.4929C47.8534 69.4755 46.7942 69.1144 45.1909 70.3614C44.5795 70.8381 44.0499 71.4206 43.5299 72.0032C41.8592 73.8616 40.6075 74.0109 38.5468 72.5184C35.0514 69.9907 32.1723 66.8757 29.8854 63.2214C28.725 61.3678 28.8984 60.3326 30.5209 58.8257C31.2623 58.1324 32.023 57.4294 32.62 56.6158C33.7852 55.0173 33.5493 54.3096 31.686 53.8281C30.6509 53.5585 29.558 53.4718 28.4843 53.3804C26.3563 53.1974 25.4367 52.4126 25.1959 50.3135C24.9504 48.171 24.7963 46.0237 24.5893 43.7464L24.5845 43.7319ZM16.4382 135.421C16.6452 137.433 16.6067 139.258 17.0545 140.958C18.0463 144.752 21.248 146.755 25.9374 146.755C56.6208 146.74 87.3042 146.702 117.983 146.697C137.135 146.697 156.292 146.755 175.445 146.75C181.834 146.75 185.71 141.694 184.145 135.421H16.4382ZM55.8938 15.7784C55.316 19.3171 54.5938 22.6536 50.9877 24.1654C47.2612 25.7254 44.4254 23.7466 41.5559 21.4404C39.7312 23.1062 37.9739 24.7143 36.1684 26.3657C38.4938 29.187 40.3089 32.0373 38.7731 35.5616C37.218 39.1195 33.8093 39.7358 30.2609 40.0873V47.4006C39.3797 49.1339 41.0311 53.4237 35.6581 61.5266C37.2421 63.2551 38.8742 65.0413 40.5304 66.8516C41.1034 66.3942 41.4211 66.1294 41.7485 65.879C46.9338 61.8781 51.758 63.5343 53.4335 69.8752C53.7128 70.9247 53.7368 72.4317 54.4253 72.8843C55.3016 73.4572 56.7411 73.1683 57.94 73.2405C58.2963 73.2598 58.6622 73.202 59.0184 73.2261C60.5832 73.3272 61.3776 72.9035 61.7291 71.0692C63.0049 64.4924 68.715 62.4751 74.0737 66.5435C74.4974 66.866 74.921 67.1934 75.5854 67.7086C77.3813 66.0716 79.1627 64.4443 80.9971 62.7736C78.5031 59.8367 77.0683 56.7795 78.4694 53.2841C79.9041 49.702 83.2647 48.9028 86.9479 48.5224V41.1513C83.4669 40.8095 80.3663 39.7454 78.999 36.2115C77.6124 32.6343 79.6682 29.8948 81.8589 27.1312C80.1786 25.3017 78.5753 23.554 76.9143 21.7389C74.0929 24.1077 71.2331 25.8842 67.7232 24.3436C64.1749 22.7836 63.5538 19.3749 63.236 15.788H55.9082L55.8938 15.7784ZM100.323 183.427C110.53 183.427 120.737 183.403 130.944 183.451C132.658 183.461 133.327 182.835 133.279 181.126C133.202 178.425 133.269 175.724 133.255 173.018C133.245 170.842 132.932 170.524 130.751 170.529C122.528 170.548 114.3 170.611 106.076 170.606C94.189 170.601 82.3018 170.548 70.4146 170.529C68.2673 170.529 67.781 171.02 67.7762 173.177C67.7666 175.758 67.7666 178.343 67.7762 180.924C67.7858 183.162 68.041 183.422 70.2413 183.422C80.2701 183.422 90.294 183.422 100.323 183.422V183.427ZM116.933 164.771V152.542H84.0784V164.771H116.933Z" fill="white" fill-opacity="0.7"/>
<path d="M138.767 52.5523C148.377 52.5523 157.982 52.5426 167.592 52.5523C174.453 52.5619 178.271 56.3991 178.276 63.2936C178.29 79.5091 178.285 95.7247 178.276 111.94C178.276 118.421 174.063 122.73 167.607 122.739C148.329 122.773 129.056 122.768 109.779 122.739C103.265 122.73 99.4225 118.791 99.4177 112.234C99.4081 95.8402 99.4081 79.4417 99.4177 63.0481C99.4177 56.3895 103.25 52.5667 109.942 52.5523C119.552 52.533 129.157 52.5523 138.767 52.5523ZM172.638 76.9333C171.969 76.8996 171.555 76.8611 171.145 76.8611C149.653 76.8611 128.166 76.8708 106.673 76.8322C105.325 76.8322 104.94 77.2174 104.945 78.5607C104.993 89.6679 104.964 100.775 104.979 111.882C104.979 115.59 106.543 117.126 110.236 117.126C129.206 117.126 148.175 117.126 167.145 117.126C171.011 117.126 172.633 115.517 172.638 111.685C172.643 102.321 172.638 92.9515 172.638 83.5871V76.9333ZM172.465 71.2329C172.551 70.9344 172.609 70.8188 172.609 70.7081C172.624 68.426 172.633 66.1487 172.633 63.8665C172.633 59.4756 171.256 58.1131 166.798 58.1083C148.137 58.1083 129.475 58.1083 110.809 58.1131C109.971 58.1131 109.119 58.1324 108.305 58.3009C106.702 58.6283 105.364 59.6538 105.253 61.2233C105.027 64.531 105.186 67.8675 105.186 71.2281H172.46L172.465 71.2329Z" fill="white" fill-opacity="0.7"/>
<path d="M58.33 98.7097C65.8359 98.7097 73.3371 98.6423 80.8382 98.7338C85.7106 98.7916 89.3841 101.093 91.464 105.498C93.5583 109.937 93.0624 114.285 90.0677 118.204C87.7279 121.266 84.4732 122.72 80.6745 122.73C65.7252 122.778 50.7807 122.836 35.8314 122.701C29.2017 122.643 24.4738 117.973 23.949 111.521C23.4579 105.469 27.5599 100.116 33.6697 98.9167C34.7192 98.7097 35.817 98.7049 36.8906 98.7001C44.0355 98.6808 51.1755 98.6905 58.3204 98.6905V98.7049L58.33 98.7097ZM58.1711 117.121C65.4989 117.121 72.8219 117.13 80.1497 117.121C83.9629 117.116 87.049 114.295 87.1116 110.794C87.179 107.337 84.1314 104.295 80.3086 104.28C65.6578 104.227 51.007 104.232 36.3514 104.28C32.4997 104.295 29.505 107.227 29.5098 110.732C29.5147 114.333 32.5671 117.121 36.5536 117.126C43.761 117.135 50.9637 117.126 58.1711 117.126V117.121Z" fill="white" fill-opacity="0.7"/>
<path d="M100.665 138.401C102.047 138.401 103.434 138.339 104.811 138.416C106.404 138.507 107.367 139.359 107.454 141.02C107.541 142.701 106.698 143.856 104.965 143.924C101.97 144.044 98.9606 144.03 95.9658 143.909C94.3287 143.842 93.5584 142.715 93.5872 141.088C93.6161 139.537 94.5502 138.512 96.1632 138.42C97.6606 138.339 99.1676 138.401 100.665 138.401Z" fill="white" fill-opacity="0.7"/>
<path d="M58.3058 63.4189C47.9208 63.4285 39.5626 55.0415 39.5867 44.6275C39.6108 34.358 48.0074 25.971 58.2818 25.9566C68.5898 25.9421 77.102 34.488 77.0394 44.7864C76.9816 55.0848 68.6091 63.4093 58.301 63.4141L58.3058 63.4189ZM71.3919 44.6757C71.3726 37.3383 65.5566 31.5752 58.2096 31.6137C50.9829 31.6522 45.1861 37.4442 45.1476 44.6612C45.1139 51.8976 51.0503 57.8628 58.2866 57.8677C65.5614 57.8677 71.4064 51.9794 71.3919 44.6757Z" fill="white" fill-opacity="0.7"/>
<path d="M152.783 96.8664C150.799 94.719 149.003 92.7257 147.15 90.7853C145.643 89.2012 145.44 87.6316 146.683 86.3942C147.891 85.1905 149.432 85.3012 150.963 86.7553C153.573 89.2301 156.163 91.7242 158.744 94.2327C160.222 95.6675 160.256 97.1649 158.816 98.619C156.283 101.171 153.727 103.703 151.156 106.217C149.706 107.632 148.257 107.733 147.039 106.588C145.763 105.389 145.801 103.781 147.231 102.326C149.119 100.415 151.064 98.5564 152.783 96.8712V96.8664Z" fill="white" fill-opacity="0.7"/>
<path d="M144.122 86.4278C143.217 89.9619 142.234 93.7945 141.252 97.6223C140.429 100.815 139.615 104.007 138.777 107.199C138.219 109.327 136.635 110.526 134.94 110.141C133.308 109.77 132.624 108.104 133.216 105.88C135.046 99.0475 136.875 92.2152 138.724 85.3926C139.191 83.6786 140.53 82.7493 142.013 83.0141C143.371 83.2597 144.242 84.526 144.127 86.4326L144.122 86.4278Z" fill="white" fill-opacity="0.7"/>
<path d="M124.199 96.5389C125.85 98.1278 127.473 99.6781 129.081 101.238C129.596 101.739 130.135 102.23 130.578 102.789C131.537 103.997 131.435 105.494 130.386 106.53C129.307 107.594 127.829 107.724 126.678 106.612C123.828 103.867 121.026 101.07 118.291 98.2096C117.174 97.0396 117.299 95.6337 118.435 94.5022C121.199 91.7529 123.996 89.0374 126.842 86.37C128.075 85.2144 129.625 85.3107 130.713 86.4085C131.845 87.5592 131.854 89.124 130.578 90.4048C128.59 92.3981 126.519 94.3144 124.199 96.5292V96.5389Z" fill="white" fill-opacity="0.7"/>
<path d="M126.765 67.6749C122.09 67.6749 117.41 67.6845 112.735 67.6653C112.085 67.6653 111.411 67.6268 110.785 67.4582C109.418 67.0923 108.7 65.9657 108.989 64.7428C109.211 63.7992 110.106 62.9422 110.881 62.244C111.237 61.9215 112.027 62.0274 112.619 62.0274C122.094 62.0178 131.569 62.0274 141.04 62.0178C142.412 62.0178 143.726 62.1477 144.405 63.5681C145.402 65.6576 144.039 67.6364 141.516 67.6605C136.601 67.7086 131.685 67.6749 126.765 67.6749Z" fill="white" fill-opacity="0.7"/>
<path d="M151.911 67.6415C151.372 67.6415 150.828 67.6993 150.298 67.6319C148.714 67.42 147.833 66.4907 147.775 64.8826C147.718 63.3178 148.724 62.2152 150.409 62.0659C151.478 61.9696 152.561 61.9792 153.635 62.0515C155.465 62.1767 156.428 63.2167 156.404 64.9067C156.38 66.5726 155.383 67.5404 153.524 67.6656C152.99 67.7041 152.451 67.6704 151.911 67.6704C151.911 67.6607 151.911 67.6511 151.911 67.6463V67.6415Z" fill="white" fill-opacity="0.7"/>
<path d="M164.164 67.7089C163.452 67.6704 162.72 67.7089 162.027 67.5741C160.52 67.2755 159.797 66.2644 159.831 64.7526C159.865 63.3177 160.601 62.3307 162.036 62.1381C163.206 61.9744 164.42 61.984 165.604 62.0466C167.443 62.1429 168.421 63.1781 168.421 64.8489C168.421 66.5196 167.424 67.5163 165.599 67.6559C165.123 67.6944 164.646 67.6607 164.169 67.6607C164.169 67.6752 164.169 67.6896 164.169 67.7041L164.164 67.7089Z" fill="white" fill-opacity="0.7"/>
<path d="M52.2588 113.505C48.3012 113.505 44.3484 113.515 40.3908 113.505C38.2146 113.495 37.1313 112.6 37.0688 110.833C37.0062 108.95 38.0606 107.925 40.3331 107.915C48.306 107.881 56.2742 107.881 64.2471 107.915C66.4281 107.925 67.4585 108.893 67.4729 110.688C67.4873 112.556 66.3896 113.495 64.1268 113.505C60.1692 113.519 56.2164 113.505 52.2588 113.505Z" fill="white" fill-opacity="0.7"/>
</svg>
