<svg width="200" height="200" viewBox="0 0 200 200" fill="none" xmlns="http://www.w3.org/2000/svg">
<path d="M118.227 164.124C119.336 169.979 120.386 175.543 121.46 181.212C124.9 181.212 128.214 181.202 131.529 181.212C133.954 181.222 135.295 182.257 135.35 184.135C135.4 186.078 134.004 187.223 131.504 187.223C110.453 187.228 89.3977 187.233 68.3472 187.223C65.4297 187.223 63.6571 184.833 65.1435 182.774C65.731 181.965 67.0667 181.348 68.1012 181.282C71.1593 181.087 74.2375 181.252 77.3057 181.172C77.838 181.157 78.7218 180.72 78.8222 180.323C80.1278 175.046 81.318 169.738 82.6135 164.129H80.2333C62.0602 164.129 43.8921 164.134 25.7191 164.129C20.2757 164.129 16.4241 161.317 15.2792 156.491C15.0532 155.532 15.013 154.507 15.013 153.513C14.998 123.68 14.998 93.8517 15.003 64.0185C15.003 57.4101 19.0454 53.3778 25.6538 53.3527C28.7722 53.3376 31.8956 53.3527 35.25 53.3527C35.25 52.4538 35.25 51.7207 35.25 50.9926C35.25 39.3977 35.25 27.8029 35.25 16.2081C35.25 12.8587 36.1137 12 39.4782 12C79.8316 12 120.18 12 160.533 12C163.878 12 164.746 12.8637 164.746 16.2231C164.746 27.7527 164.746 39.2873 164.746 50.8168C164.746 51.56 164.746 52.3032 164.746 53.3477C166.218 53.3477 167.564 53.3477 168.909 53.3477C170.913 53.3477 172.922 53.3276 174.925 53.3527C180.79 53.4381 184.973 57.6009 184.983 63.4762C185.014 79.4548 184.993 95.4385 184.993 111.417C184.993 125.392 184.998 139.367 184.993 153.342C184.993 160.076 180.976 164.114 174.252 164.119C156.456 164.134 138.664 164.119 120.868 164.124H118.211H118.227ZM41.4366 18.1062V108.851H158.65V18.1062H41.4366ZM178.993 134.988C178.993 134.225 178.993 133.557 178.993 132.884C178.993 110.071 178.993 87.2584 178.993 64.4504C178.993 63.9482 179.013 63.4461 178.968 62.9489C178.802 61.0859 177.486 59.5041 175.648 59.4388C172.098 59.3083 168.538 59.4037 164.756 59.4037C164.756 60.2724 164.756 61.0056 164.756 61.7387C164.756 77.9685 164.756 94.2032 164.756 110.433C164.756 114.174 163.948 115.003 160.287 115.003C120.059 115.003 79.8366 115.003 39.6087 115.003C36.1388 115.003 35.26 114.134 35.26 110.699C35.26 94.3438 35.26 77.9835 35.26 61.6282C35.26 60.9051 35.26 60.1871 35.26 59.5343C34.8332 59.4338 34.7127 59.3836 34.5922 59.3836C31.7751 59.3736 28.9529 59.3635 26.1358 59.3635C22.2692 59.3635 21.0289 60.5788 21.0289 64.3751C21.0289 87.2484 21.0289 110.127 21.0289 133C21.0289 133.663 21.0289 134.326 21.0289 134.994H178.998L178.993 134.988ZM21.0691 141.215C21.0691 145.83 20.9285 150.339 21.1745 154.824C21.2298 155.858 22.4852 156.988 23.4493 157.741C24.0418 158.203 25.1315 158.133 25.9952 158.128C46.1016 158.103 66.2131 158.033 86.3194 158.017C96.5886 158.012 106.853 158.123 117.122 158.138C135.918 158.158 154.713 158.148 173.509 158.138C174.383 158.138 175.272 158.103 176.12 157.917C177.682 157.576 178.832 156.496 178.882 154.964C179.028 150.415 178.932 145.855 178.932 141.215H21.0691ZM115.294 181.122C114.28 175.734 113.315 170.456 112.246 165.193C112.155 164.761 111.337 164.179 110.85 164.174C103.91 164.109 96.9652 164.114 90.0254 164.164C89.5584 164.164 88.775 164.616 88.6846 164.992C87.3639 170.315 86.1336 175.663 84.8582 181.117H115.299L115.294 181.122Z" fill="white" fill-opacity="0.7"/>
<path d="M100.054 92.8272C115.404 92.8272 130.75 92.8272 146.101 92.8272C146.729 92.8272 147.372 92.7619 147.974 92.8825C149.335 93.1486 150.224 93.9822 150.395 95.3932C150.576 96.8595 149.998 98.0045 148.582 98.5317C147.959 98.7627 147.241 98.818 146.563 98.818C115.55 98.833 84.5419 98.828 53.5286 98.828C53.0265 98.828 52.5092 98.8782 52.0322 98.7577C50.4504 98.361 49.5063 97.3718 49.5967 95.6745C49.6821 93.9872 50.6713 93.0632 52.3134 92.8523C52.8708 92.782 53.4382 92.8323 54.0057 92.8323C69.3566 92.8323 84.7026 92.8323 100.054 92.8323V92.8272Z" fill="white" fill-opacity="0.7"/>
<path d="M93.882 83.8136C80.4091 83.8136 66.9412 83.8287 53.4683 83.7835C52.5243 83.7835 51.2739 83.6278 50.7115 83.0302C50.0486 82.3272 49.5465 80.9513 49.7775 80.0775C50.0084 79.2038 51.1534 78.4757 52.0422 77.9082C52.4941 77.617 53.2624 77.8028 53.8901 77.8028C80.5798 77.8028 107.275 77.8028 133.964 77.8028C134.401 77.8028 134.843 77.7827 135.28 77.8178C137.158 77.9534 138.418 79.2389 138.348 80.9362C138.283 82.5682 137.052 83.7734 135.24 83.8036C131.981 83.8538 128.722 83.8236 125.468 83.8236C114.942 83.8236 104.417 83.8236 93.887 83.8236L93.882 83.8136Z" fill="white" fill-opacity="0.7"/>
<path d="M87.8358 68.8042C76.5624 68.8042 65.2889 68.8042 54.0205 68.8042C53.4581 68.8042 52.8907 68.8444 52.3333 68.7791C50.7665 68.6083 49.7873 67.7447 49.6166 66.1629C49.4358 64.4957 50.2443 63.3809 51.8462 62.944C52.494 62.7683 53.207 62.7934 53.895 62.7934C76.5021 62.7883 99.1093 62.7883 121.716 62.7934C122.279 62.7934 122.851 62.7632 123.404 62.8486C125.076 63.0997 126.115 64.34 126.06 65.952C126.01 67.5438 124.87 68.6987 123.158 68.7891C121.973 68.8494 120.777 68.8092 119.587 68.8092C109.002 68.8092 98.4213 68.8092 87.8358 68.8092V68.8042Z" fill="white" fill-opacity="0.7"/>
<path d="M121.28 41.8784C119.296 39.8045 117.433 37.8662 115.59 35.9178C113.702 33.9192 113.511 32.247 114.998 30.8711C116.419 29.5504 118.066 29.8115 119.874 31.6896C122.309 34.2154 124.73 36.7514 127.14 39.3023C128.852 41.1151 128.877 42.6015 127.205 44.3791C124.715 47.0255 122.204 49.6518 119.683 52.263C118.016 53.9854 116.308 54.1662 114.937 52.8204C113.567 51.4746 113.717 49.8326 115.405 48.0449C117.293 46.0413 119.206 44.0628 121.29 41.8834L121.28 41.8784Z" fill="white" fill-opacity="0.7"/>
<path d="M78.7469 41.8884C80.7606 43.9874 82.7491 45.9659 84.6121 48.0599C85.2448 48.768 85.9729 49.8074 85.8976 50.6209C85.8072 51.575 85.0741 52.8957 84.2656 53.2422C83.3868 53.6188 81.7197 53.4681 81.0618 52.8455C78.0188 49.9681 75.1565 46.8899 72.3343 43.7866C71.1593 42.496 71.33 40.9845 72.5151 39.7141C75.2117 36.8317 77.9284 33.9694 80.6852 31.1523C82.0662 29.7412 83.7584 29.691 85.0239 30.8711C86.3044 32.0612 86.3797 33.7585 85.054 35.2248C83.0403 37.4493 80.9363 39.5835 78.7469 41.8834V41.8884Z" fill="white" fill-opacity="0.7"/>
<path d="M106.782 31.1974C106.637 31.7347 106.521 32.2871 106.335 32.8143C104.01 39.5382 101.655 46.2471 99.3504 52.976C98.8633 54.3971 98.1 55.4366 96.5233 55.5872C94.3037 55.7981 92.7872 53.7091 93.5655 51.3992C95.4938 45.6646 97.4974 39.95 99.481 34.2354C99.9932 32.7641 100.445 31.2627 101.078 29.8416C101.726 28.3954 103.086 27.7174 104.477 28.3251C105.517 28.777 106.245 29.947 107.114 30.7957C107.003 30.9262 106.893 31.0618 106.787 31.1924L106.782 31.1974Z" fill="white" fill-opacity="0.7"/>
<path d="M131.047 152.599C130.173 152.599 129.289 152.684 128.425 152.579C126.798 152.383 125.654 151.042 125.779 149.481C125.91 147.834 126.854 146.784 128.501 146.659C130.178 146.533 131.875 146.558 133.558 146.644C135.205 146.729 136.39 148.014 136.42 149.556C136.45 151.078 135.285 152.408 133.663 152.584C132.799 152.674 131.915 152.599 131.042 152.599C131.042 152.599 131.042 152.599 131.042 152.594L131.047 152.599Z" fill="white" fill-opacity="0.7"/>
<path d="M164.064 152.594C163.19 152.594 162.301 152.7 161.442 152.569C159.815 152.323 158.896 151.283 158.791 149.646C158.695 148.125 159.936 146.749 161.548 146.649C163.23 146.548 164.922 146.553 166.604 146.644C168.241 146.729 169.437 148.039 169.457 149.571C169.477 151.083 168.297 152.418 166.68 152.584C165.816 152.674 164.932 152.599 164.058 152.599C164.058 152.599 164.058 152.594 164.058 152.589L164.064 152.594Z" fill="white" fill-opacity="0.7"/>
<path d="M147.457 152.604C146.644 152.604 145.825 152.674 145.022 152.589C143.39 152.413 142.24 151.103 142.265 149.561C142.295 148.009 143.47 146.729 145.122 146.644C146.804 146.558 148.502 146.548 150.179 146.654C151.791 146.754 153.031 148.145 152.931 149.662C152.82 151.294 151.891 152.338 150.264 152.569C149.345 152.7 148.391 152.594 147.457 152.594C147.457 152.594 147.457 152.599 147.457 152.604Z" fill="white" fill-opacity="0.7"/>
</svg>
