<svg width="200" height="200" viewBox="0 0 200 200" fill="none" xmlns="http://www.w3.org/2000/svg">
<g clip-path="url(#clip0_34_124)">
<path d="M193 77.4025C192.316 80.6362 191.85 83.9334 190.913 87.0899C187.609 98.2397 180.982 106.964 171.25 113.268C170.068 114.031 169.715 114.839 169.72 116.184C169.761 134.373 169.747 152.567 169.747 170.756C169.747 171.469 169.747 172.178 169.747 173H8.38477V96.037H104.08C103.564 94.9561 103.207 94.2112 102.854 93.4619C89.8852 65.844 106.584 32.7625 136.454 26.9038C162.111 21.8716 186.812 38.3851 192.045 64.0909C192.43 65.9757 192.683 67.8878 192.995 69.7862V77.4025H193ZM14.1108 167.246H163.89V101.837H14.1108V167.246ZM169.724 107.196C170.204 106.96 170.372 106.905 170.508 106.805C184.558 96.6637 190.823 77.0483 185.264 60.6075C177.492 37.6267 153.506 26.1135 130.864 34.4975C107.113 43.2947 96.8335 72.5475 109.775 94.402C110.486 95.601 111.219 96.0279 112.599 96.0234C130.905 95.9734 149.21 95.9916 167.511 95.9916C168.204 95.9916 168.892 95.9916 169.72 95.9916V107.2L169.724 107.196Z" fill="white" fill-opacity="0.7"/>
<path d="M54.7909 41.7414V29.2927H60.3993V60.2396H54.9086V47.7909H43.6556V60.2578H38.0155V29.2973H43.5922V41.7414H54.7909Z" fill="white" fill-opacity="0.7"/>
<path d="M13.9976 47.4684V60.235H8.40735V29.2927C13.4001 29.2927 18.3974 28.9612 23.3268 29.3926C27.7629 29.7787 30.8998 33.9797 30.8817 38.4078C30.859 42.9495 27.6497 46.8826 23.0869 47.4094C20.19 47.7455 17.2205 47.473 13.9976 47.473V47.4684ZM14.0836 41.8459C16.8041 41.8459 19.3163 41.9231 21.824 41.8186C23.7071 41.7414 24.9971 40.3834 25.142 38.6213C25.2778 36.9999 24.1145 35.1787 22.4849 35.0697C19.7056 34.888 16.9082 35.0197 14.0836 35.0197V41.8459Z" fill="white" fill-opacity="0.7"/>
<path d="M73.3 60.2759H67.6554V29.27C72.621 29.27 77.555 28.9702 82.4391 29.3563C86.9385 29.7151 90.1523 33.9116 90.1207 38.435C90.089 42.9222 86.9702 46.828 82.4934 47.373C79.5421 47.7318 76.5139 47.4412 73.3 47.4412V60.2759ZM73.3951 34.9516V41.8322C76.0929 41.8322 78.6685 41.9321 81.2305 41.8004C83.1271 41.705 84.4625 40.0746 84.4036 38.2897C84.3493 36.5503 83.0457 35.0606 81.226 34.9834C78.664 34.8744 76.0929 34.9561 73.3951 34.9561V34.9516Z" fill="white" fill-opacity="0.7"/>
<path d="M20.7467 75.3679H26.8892V80.9042H20.7467V75.3679Z" fill="white" fill-opacity="0.7"/>
<path d="M33.48 75.3361H39.5591V80.9359H33.48V75.3361Z" fill="white" fill-opacity="0.7"/>
<path d="M8 80.9041V75.4224H14.1878V80.9041H8Z" fill="white" fill-opacity="0.7"/>
<path d="M103.8 130.063C106.457 126.875 109.019 123.85 111.518 120.775C112.55 119.508 113.681 118.586 115.374 119.19C117.022 119.776 117.23 121.207 117.23 122.747C117.212 131.326 117.226 139.905 117.217 148.489C117.217 148.966 117.162 149.442 117.126 150.046H111.545V130.34C111.418 130.295 111.296 130.249 111.169 130.204C109.675 131.984 108.195 133.774 106.692 135.54C104.619 137.979 102.94 137.979 100.912 135.554C99.4227 133.774 97.938 131.984 96.1229 129.809V150.065H90.4602C90.424 149.456 90.3651 148.875 90.3606 148.298C90.3561 139.837 90.3696 131.38 90.3425 122.919C90.338 121.307 90.5235 119.813 92.2346 119.19C93.9185 118.577 95.0727 119.504 96.1003 120.766C98.6034 123.85 101.161 126.889 103.795 130.063H103.8Z" fill="white" fill-opacity="0.7"/>
<path d="M48.1369 137.516H36.902V150.033H31.2076V119.136H36.7979V131.58H48.0419V119.081H53.682V150.046H48.1369V137.516Z" fill="white" fill-opacity="0.7"/>
<path d="M83.3172 124.713H74.9024V150.087H69.2487V124.686H60.8339V119.099H83.3172V124.718V124.713Z" fill="white" fill-opacity="0.7"/>
<path d="M124.513 119.063H129.837C129.877 119.785 129.945 120.48 129.945 121.171C129.954 127.334 129.945 133.492 129.954 139.655C129.963 143.27 131.127 144.438 134.703 144.442C138.663 144.451 142.629 144.442 146.716 144.442V150.178C144.661 150.178 142.633 150.201 140.605 150.174C137.717 150.128 134.816 150.224 131.95 149.937C128.017 149.542 124.495 146.032 124.391 142.117C124.192 134.573 124.31 127.02 124.305 119.472C124.305 119.368 124.405 119.263 124.509 119.063H124.513Z" fill="white" fill-opacity="0.7"/>
<path d="M169.697 64.1545H175.935V69.8589H169.878V76.8485H175.917V82.5664H169.811V88.902H164.093V82.789H157.068V88.8839H151.415V82.7254H145.091V76.9348H151.238V69.877H145.041V64.2272H151.27V57.9461H156.991V64.0728H163.976V57.9415H169.693V64.15L169.697 64.1545ZM163.958 70.0042H157.141V76.7576H163.958V70.0042Z" fill="white" fill-opacity="0.7"/>
<path d="M138.012 69.7771H132.258C132.258 68.7961 132.322 67.9014 132.245 67.0203C132.073 64.9493 130.801 63.6958 128.741 63.5913C127.361 63.5232 125.971 63.5232 124.586 63.5913C122.495 63.6958 121.146 64.9357 121.105 67.0067C121.023 71.294 121.019 75.5904 121.109 79.8777C121.15 81.8534 122.499 83.0842 124.482 83.2159C125.681 83.2931 126.89 83.2658 128.094 83.2477C130.964 83.2022 132.222 81.9124 132.272 78.9967C132.281 78.4017 132.272 77.8022 132.272 77.0755H137.713C139.27 82.4347 135.513 88.2526 129.923 88.8884C127.782 89.1337 125.577 89.1109 123.432 88.8929C118.946 88.4342 115.564 84.7782 115.379 80.073C115.207 75.6676 115.207 71.2486 115.37 66.8432C115.564 61.5521 119.471 57.9233 124.767 57.8189C125.912 57.7962 127.057 57.8053 128.198 57.8189C134.069 57.8734 137.885 61.6702 138.007 67.5789C138.021 68.2375 138.007 68.896 138.007 69.7771H138.012Z" fill="white" fill-opacity="0.7"/>
</g>
<defs>
<clipPath id="clip0_34_124">
<rect width="185" height="147" fill="white" transform="translate(8 26)"/>
</clipPath>
</defs>
</svg>
