<svg width="162" height="92" viewBox="0 0 162 92" fill="none" xmlns="http://www.w3.org/2000/svg">
<g clip-path="url(#clip0_34_225)">
<path d="M2.61365 92.0001V28.8772C2.61365 23.5953 3.90965 18.8763 6.50165 14.7201C9.09365 10.4772 12.636 7.14358 17.1288 4.71911C21.708 2.29463 26.892 1.0824 32.6808 1.0824H68.58V23.0325H36.9576C35.1432 23.0325 33.6312 23.6386 32.4216 24.8509C31.212 26.0631 30.6072 27.5784 30.6072 29.3968V39.3977H64.4328V60.8283H30.6072V92.0001H2.61365ZM76.9149 92.0001V1.0824H104.909V35.1116H131.995V1.0824H159.989V92.0001H131.995V57.0617H104.909V92.0001H76.9149Z" fill="white"/>
</g>
<defs>
<clipPath id="clip0_34_225">
<rect width="162" height="92" fill="white"/>
</clipPath>
</defs>
</svg>
